<?xml version="1.0" encoding="UTF-8"?><svg id="Layer_1" xmlns="http://www.w3.org/2000/svg" viewBox="0 0 422.84 168.22"><defs><style>.cls-1{fill:#efca7f;}.cls-2{fill:#f0cb7f;}.cls-3{fill:#321c98;}.cls-4{fill:#321c99;}</style></defs><g><path class="cls-3" d="M197.92,65.66c-1.71,0-3.27,0-4.83,0-1.8-.01-2.48-.7-2.48-2.53,0-2.14,0-4.29,0-6.43,0-1.84,.69-2.49,2.63-2.49,7.23,0,14.46,0,21.69,0,2.79,0,5.59-.08,8.36,.51,7.38,1.57,12.02,6.4,13.31,13.88,.32,1.83,.43,3.68,.43,5.53,0,7.71,0,15.41,0,23.12,0,2.05-.62,2.68-2.65,2.68-6.87,0-13.73,0-20.6,0-1.94,0-2.6-.67-2.61-2.63,0-1.85,0-3.71,0-5.56,0-2.04,.65-2.7,2.65-2.7,2.91,0,5.81-.03,8.72,0,.72,0,1-.12,.99-.93-.04-4.69,.02-9.38-.04-14.07-.04-2.77-.72-5.33-3.07-7.14-1.01-.78-2.14-1.24-3.41-1.26-2.07-.03-4.14,0-6.21-.03-.56,0-.71,.23-.82,.75-2.24,10.61-4.5,21.21-6.75,31.81-.22,1.05-.96,1.73-2.06,1.74-3.05,.02-6.1,.03-9.16,0-1.57-.02-2.23-1.03-1.83-2.69,2.49-10.13,4.98-20.26,7.47-30.39,.09-.35,.16-.7,.27-1.17Z"/><path class="cls-3" d="M316.85,83.81c0,5.18,0,9.4,0,13.61,0,1.85-.65,2.5-2.48,2.5-2.91,0-5.81,0-8.72,0-1.62,0-2.32-.7-2.32-2.34,0-7.63,0-15.26,0-22.9,0-1.24-.04-2.47-.35-3.68-.87-3.35-3.03-5.3-6.45-5.76-2.28-.3-4.57-.11-6.86-.17-.63-.02-.66,.4-.77,.84-.91,3.66-1.15,7.39-1.06,11.14,.16,6.47,.38,12.93,.58,19.4,.01,.47,.06,.95,.04,1.42-.06,1.25-.82,2.04-2.07,2.04-5.56,0-11.12-.02-16.67-.06-1.51-.01-2.29-.81-2.31-2.3-.02-1.93-.02-3.85,0-5.78,.02-1.51,.77-2.24,2.32-2.27,1.53-.03,3.05-.02,4.58-.02,1.56,0,1.55,0,1.57-1.62,.06-5.09-.12-10.18,.2-15.26,.14-2.29,.44-4.55,.95-6.79,.15-.68-.06-.73-.6-.72-1.27,.02-2.54,.01-3.81-.01-1.47-.03-2.2-.76-2.21-2.24-.02-2.14-.02-4.29,0-6.43,.01-1.42,.71-2.2,2.14-2.19,8.61,.04,17.22-.25,25.83,.17,4.02,.19,7.9,1.17,11.34,3.42,4.39,2.86,6.34,7.15,6.91,12.16,.56,4.92,.1,9.88,.25,13.85Z"/><path class="cls-3" d="M69.51,70.57c0-5.2,0-9.49,0-13.78,0-1.96,.64-2.59,2.63-2.59,2.4,0,4.8-.01,7.2,0,1.93,0,2.54,.62,2.55,2.56,0,7.56,0,15.12,0,22.68,0,1.02,.01,2.05,.17,3.04,.52,3.28,2.47,5.35,5.61,6.26,2.37,.69,4.81,.73,7.23,.22,3.28-.7,5.41-2.86,5.77-6.28,.41-3.94,.41-7.91-.2-11.85-.02-.11-.06-.21-.09-.31-1.18-4.97-4.26-6.32-9.03-4.46-.2,.08-.39,.19-.59,.28-1.28,.52-2.45-.09-2.51-1.47-.1-2.43-.18-4.87,.06-7.3,.11-1.1,.79-1.84,1.76-2.33,1.45-.72,3-1.08,4.6-1.22,3.43-.29,6.82-.15,10.12,.97,4.56,1.55,6.97,4.99,8.18,9.45,.66,2.43,.95,4.93,.97,7.44,.04,4.5,.37,9.01-.47,13.48-1.53,8.15-6.44,13.18-14.6,14.71-5.52,1.04-11.05,.95-16.52-.56-7.01-1.93-11.8-7.59-12.59-14.81-.54-5.01-.1-10.02-.27-14.12Z"/><path class="cls-3" d="M164.33,99.92c-5.92,0-11.85,0-17.77,0-1.93,0-2.61-.69-2.61-2.63,0-1.89,0-3.78,0-5.67,0-1.94,.66-2.59,2.64-2.59,6.1,0,12.21-.03,18.31,.01,.91,0,1.14-.22,1.13-1.13-.04-4.4,0-8.8,0-13.2,0-1.27-.04-2.55-.36-3.79-.9-3.49-3.55-5.57-7.45-5.67-3.56-.09-7.12-.04-10.68-.05-2.17,0-2.76-.6-2.76-2.8,0-2-.01-4,0-6,.01-1.43,.69-2.21,2.13-2.19,5.81,.07,11.64-.41,17.41,.56,4.72,.8,9.06,2.43,12.12,6.4,2.42,3.14,3.28,6.83,3.49,10.7,.29,5.34,.13,10.68,.14,16.03,0,.9,.21,1.14,1.13,1.13,3.47-.04,3.68,.2,3.68,3.72,0,1.53,0,3.05,0,4.58,0,1.9-.68,2.58-2.55,2.58-6,0-11.99,0-17.99,0Z"/><path class="cls-3" d="M342.45,54.2c3.46,.05,7.64-.11,11.82,.11,3.14,.16,6.19,.71,9.03,2.16,3.78,1.93,5.99,5.12,7.1,9.08,1.64,5.87,1.68,11.79-.24,17.61-2.02,6.11-6.37,10.28-11.74,13.51-3.43,2.06-7.22,3.2-11.03,4.25-.94,.26-1.9-.4-2.19-1.47-.11-.41-.14-.86-.14-1.29-.01-2.18,.07-4.37-.03-6.54-.08-1.85,.77-2.95,2.39-3.6,1.41-.57,2.84-1.1,4.17-1.85,4.08-2.28,5.82-5.9,5.96-10.44,.05-1.71-.03-3.42-.39-5.09-.62-2.85-2.2-4.29-5.1-4.75-1.12-.18-2.24-.22-3.37-.22-6.72,0-13.44,0-20.17,0-1.99,0-2.67-.69-2.68-2.7,0-2.04,0-4.07,0-6.11,0-2.01,.65-2.65,2.7-2.65,4.4,0,8.79,0,13.91,0Z"/><path class="cls-3" d="M136.08,77.02c0,6.76,0,13.52,0,20.28,0,1.96-.65,2.62-2.6,2.62-3.02,0-6.03,0-9.05,0-1.7,0-2.45-.75-2.45-2.47,0-13.6,0-27.19,0-40.79,0-1.74,.71-2.45,2.46-2.46,3.05-.02,6.1-.02,9.16,0,1.83,.01,2.49,.7,2.49,2.53,0,6.76,0,13.52,0,20.28Z"/><path class="cls-3" d="M339.07,93.93c0,6.25,0,12.5,0,18.75,0,1.91-.63,2.53-2.55,2.53-2.76,0-5.52,0-8.28,0-1.67,0-2.39-.72-2.39-2.4,0-12.61,0-25.22,0-37.83,0-1.72,.72-2.43,2.47-2.44,2.76-.02,5.52-.02,8.28,0,1.84,.01,2.47,.67,2.47,2.53,0,6.29,0,12.57,0,18.86Z"/><path class="cls-3" d="M259.69,67.53c0,3.64,0,7.27,0,10.91,0,1.81-.69,2.5-2.5,2.51-3.05,0-6.1,0-9.16,0-1.7,0-2.45-.75-2.46-2.47,0-7.27,0-14.54,0-21.81,0-1.73,.71-2.45,2.46-2.46,3.05-.02,6.1-.02,9.16,0,1.82,.01,2.5,.72,2.5,2.53,0,3.6,0,7.2,0,10.8Z"/><path class="cls-1" d="M127.89,48.01c-5.53,0-10.12-4.59-10.12-10.13,0-5.54,4.59-10.15,10.11-10.16,5.59,0,10.18,4.6,10.17,10.2-.01,5.54-4.59,10.09-10.15,10.09Z"/></g><g><path class="cls-4" d="M181.81,108.48c0-.86-.22-1.53-.66-2-.44-.48-1.13-.71-2.08-.71h-2.91c-.13,0-.23-.04-.32-.13-.09-.09-.13-.2-.13-.34v-1.08c0-.13,.04-.23,.13-.32,.09-.09,.2-.13,.32-.13h3c1.11,0,2.05,.16,2.79,.47,.75,.32,1.31,.81,1.68,1.49,.37,.68,.56,1.57,.56,2.67v8.11c0,.13-.04,.23-.12,.32s-.19,.13-.33,.13h-1.48c-.14,0-.25-.04-.33-.12s-.12-.19-.12-.33v-8.02Z"/><path class="cls-4" d="M188.48,105.84l-2.74-.02c-.13,0-.23-.04-.32-.12-.09-.08-.13-.19-.13-.31v-3.82c0-.13,.04-.23,.13-.32,.09-.09,.2-.13,.32-.13h1.37c.14,0,.25,.04,.33,.13,.08,.09,.12,.2,.12,.32v2.19h.95l-.04,2.09Zm-.36,8.97c-.11,.03-.22,0-.32-.09-.1-.09-.15-.2-.15-.32v-1.35c0-.13,.04-.24,.11-.34,.08-.1,.18-.18,.32-.23l.67-.27c.43-.18,.82-.4,1.18-.67s.64-.64,.85-1.1c.21-.46,.31-1.06,.31-1.79,0-.7-.08-1.25-.25-1.65s-.44-.7-.82-.87c-.38-.18-.91-.27-1.58-.27h-.51c-.13,0-.23-.04-.32-.13-.09-.09-.13-.2-.13-.32v-1.2c0-.13,.04-.23,.13-.31,.09-.08,.2-.12,.32-.12h.97c1.14,0,2.05,.17,2.73,.52,.68,.35,1.17,.88,1.47,1.6,.3,.72,.46,1.63,.46,2.75,0,.87-.13,1.64-.39,2.3-.26,.66-.61,1.22-1.04,1.7-.44,.47-.93,.87-1.49,1.19-.56,.32-1.13,.57-1.73,.76l-.78,.25Z"/><path class="cls-4" d="M200.47,112.72c.75,.01,1.39-.13,1.93-.43,.54-.3,.96-.71,1.25-1.24,.3-.53,.45-1.14,.45-1.82v-5.02c0-.14,.04-.25,.12-.33,.08-.08,.19-.12,.33-.12h1.33c.14,0,.25,.04,.33,.13s.12,.2,.12,.32v5.15c0,.82-.14,1.57-.41,2.24-.27,.67-.66,1.24-1.15,1.71-.49,.47-1.07,.83-1.74,1.07s-1.39,.36-2.18,.35h-1.62c-.92,0-1.74-.19-2.43-.58s-1.24-.92-1.62-1.6c-.39-.68-.58-1.45-.58-2.31v-6.04c0-.13,.04-.23,.13-.32,.09-.09,.2-.13,.32-.13h1.35c.13,0,.23,.04,.32,.12,.09,.08,.13,.19,.13,.33l.04,5.17c0,1.08,.29,1.9,.86,2.48s1.29,.86,2.16,.86h.53Zm-3.91-1.75l-.02-1.75c.76-.01,1.35-.14,1.77-.39s.71-.59,.87-1.03c.16-.44,.25-.94,.25-1.51v-2.07c0-.14,.04-.25,.12-.34s.19-.13,.33-.13h1.33c.13,0,.23,.04,.32,.13,.09,.09,.13,.2,.13,.34v2.13c0,.94-.19,1.75-.57,2.44-.38,.69-.95,1.23-1.71,1.61-.76,.38-1.7,.57-2.83,.57Z"/><path class="cls-4" d="M213.43,105.84l-2.74-.02c-.13,0-.23-.04-.32-.12-.09-.08-.13-.19-.13-.31v-3.82c0-.13,.04-.23,.13-.32,.09-.09,.2-.13,.32-.13h1.37c.14,0,.25,.04,.33,.13,.08,.09,.12,.2,.12,.32v2.19h.95l-.04,2.09Zm-.36,8.97c-.11,.03-.22,0-.32-.09-.1-.09-.15-.2-.15-.32v-1.35c0-.13,.04-.24,.11-.34,.08-.1,.18-.18,.32-.23l.67-.27c.43-.18,.82-.4,1.18-.67s.64-.64,.85-1.1c.21-.46,.31-1.06,.31-1.79,0-.7-.08-1.25-.25-1.65-.17-.41-.44-.7-.82-.87-.38-.18-.91-.27-1.58-.27h-.51c-.13,0-.23-.04-.32-.13-.09-.09-.13-.2-.13-.32v-1.2c0-.13,.04-.23,.13-.31,.09-.08,.2-.12,.32-.12h.97c1.14,0,2.05,.17,2.73,.52s1.17,.88,1.47,1.6,.46,1.63,.46,2.75c0,.87-.13,1.64-.39,2.3-.26,.66-.61,1.22-1.04,1.7-.44,.47-.93,.87-1.49,1.19-.56,.32-1.13,.57-1.73,.76l-.78,.25Z"/><path class="cls-4" d="M220.13,114.6c-.13,0-.23-.04-.32-.13-.09-.09-.13-.2-.13-.32v-9.94c0-.13,.04-.23,.13-.32,.09-.09,.2-.13,.32-.13h1.58c.13,0,.23,.04,.32,.13,.09,.09,.13,.2,.13,.32v9.94c0,.13-.04,.23-.13,.32-.09,.09-.2,.13-.32,.13h-1.58Z"/><path class="cls-4" d="M226.46,113.65c-.49,.3-.95,.54-1.36,.71-.41,.17-.84,.3-1.28,.39-.13,.01-.24,0-.32-.04-.09-.04-.13-.12-.13-.25v-1.46c0-.22,.13-.37,.4-.48,.09-.04,.26-.09,.5-.17s.51-.17,.79-.28,.52-.22,.72-.33c.3-.17,.6-.39,.88-.67s.53-.59,.73-.9c.2-.32,.32-.61,.36-.89l1.1-.06c-.04,.66-.16,1.27-.37,1.84-.21,.57-.49,1.07-.85,1.51-.35,.44-.75,.79-1.18,1.07Zm2.17,.95c-.13,0-.23-.04-.3-.13-.08-.09-.13-.2-.15-.32l-1.14-5.78c-.11-.58-.25-1.06-.4-1.44s-.36-.67-.62-.86c-.26-.2-.61-.29-1.05-.29h-.67c-.14,0-.25-.04-.33-.13-.08-.09-.12-.2-.12-.34v-1.16c0-.13,.04-.23,.12-.32,.08-.09,.19-.13,.33-.13h.7c.95,0,1.72,.17,2.31,.49s1.05,.83,1.39,1.51c.34,.68,.61,1.54,.83,2.59l1.14,5.87c.03,.13,0,.23-.1,.32-.1,.09-.21,.13-.35,.13h-1.58Z"/><path class="cls-4" d="M236.44,114.6c-.14,0-.25-.04-.33-.12-.08-.08-.12-.19-.12-.33v-5.66c0-.86-.22-1.53-.66-2-.44-.48-1.13-.71-2.08-.71h-2.66c-.14,0-.25-.04-.33-.13-.08-.09-.12-.2-.12-.34v-1.08c0-.13,.04-.23,.12-.32,.08-.09,.19-.13,.33-.13h2.77c1.11,0,2.04,.16,2.78,.48s1.3,.83,1.67,1.51c.37,.68,.56,1.56,.56,2.64v5.76c0,.13-.04,.23-.12,.32-.08,.09-.19,.13-.33,.13h-1.48Z"/><path class="cls-4" d="M242.71,104.64h.65c.28,0,.47,.06,.58,.17s.15,.25,.12,.4c-.11,.46-.21,.88-.28,1.28-.07,.4-.12,.8-.15,1.21-.03,.41-.05,.86-.05,1.35l.09,5.09c0,.13-.04,.23-.12,.32-.08,.09-.19,.13-.33,.13l-3.31-.02c-.13,0-.23-.04-.32-.13-.09-.09-.13-.2-.13-.32v-1.03c0-.13,.04-.23,.13-.32,.09-.09,.2-.13,.32-.13l1.5,.02v-3.55c0-.47,0-.91,.03-1.31,.02-.41,.06-.82,.13-1.24,.07-.42,.17-.87,.31-1.37,.05-.15,.13-.28,.25-.39,.11-.11,.3-.16,.57-.16Zm-2.05,1.12c-.13,0-.23-.04-.32-.13s-.13-.2-.13-.34v-1.08c0-.13,.04-.23,.13-.32s.2-.13,.32-.13h4.67c1.11,0,2.04,.17,2.78,.5,.74,.34,1.3,.85,1.68,1.54s.57,1.55,.57,2.59v5.76c0,.13-.04,.23-.13,.32-.09,.09-.2,.13-.32,.13h-1.5c-.14,0-.25-.04-.33-.12-.08-.08-.12-.19-.12-.33v-5.66c0-.86-.22-1.53-.66-2-.44-.48-1.13-.71-2.08-.71h-4.56Z"/><path class="cls-4" d="M259.41,114.6c-.14,0-.25-.04-.33-.12-.08-.08-.12-.19-.12-.33v-5.66c0-.86-.22-1.53-.65-2-.44-.48-1.13-.71-2.08-.71h-3.91c-.13,0-.24-.04-.32-.13s-.13-.2-.13-.34v-1.08c0-.13,.04-.23,.13-.32s.2-.13,.32-.13h4.01c1.69,0,2.95,.39,3.78,1.17s1.25,1.96,1.25,3.54v5.68c0,.13-.04,.23-.12,.32-.08,.09-.19,.13-.33,.13h-1.48Zm-7.11,0c-.13,0-.24-.04-.32-.13s-.13-.2-.13-.32v-5.99c0-.13,.04-.23,.13-.32s.2-.13,.32-.13h1.5c.13,0,.23,.04,.32,.13,.09,.09,.13,.2,.13,.32v5.99c0,.13-.04,.23-.13,.32-.09,.09-.2,.13-.32,.13h-1.5Z"/><path class="cls-4" d="M269,104.64h.65c.28,0,.47,.06,.58,.17,.11,.11,.15,.25,.12,.4-.11,.46-.21,.88-.28,1.28s-.12,.8-.15,1.21c-.03,.41-.05,.86-.05,1.35l.09,5.09c0,.13-.04,.23-.12,.32-.08,.09-.19,.13-.33,.13l-3.31-.02c-.13,0-.23-.04-.32-.13-.09-.09-.13-.2-.13-.32v-1.03c0-.13,.04-.23,.13-.32,.09-.09,.2-.13,.32-.13l1.5,.02v-3.55c0-.47,0-.91,.03-1.31s.06-.82,.13-1.24,.17-.87,.31-1.37c.05-.15,.13-.28,.25-.39,.11-.11,.3-.16,.57-.16Zm-2.05,1.12c-.13,0-.24-.04-.32-.13-.09-.09-.13-.2-.13-.34v-1.08c0-.13,.04-.23,.13-.32,.09-.09,.2-.13,.32-.13h4.67c1.11,0,2.04,.17,2.78,.5,.74,.34,1.3,.85,1.68,1.54s.57,1.55,.57,2.59v5.76c0,.13-.04,.23-.13,.32-.09,.09-.2,.13-.32,.13h-1.5c-.14,0-.25-.04-.33-.12-.08-.08-.12-.19-.12-.33v-5.66c0-.86-.22-1.53-.66-2-.44-.48-1.13-.71-2.08-.71h-4.56Z"/><path class="cls-4" d="M278.54,114.6c-.13,0-.23-.04-.32-.13s-.13-.2-.13-.32v-1.18c0-.13,.04-.23,.13-.32s.2-.13,.32-.13h2.74c.95,0,1.65-.24,2.09-.71,.44-.47,.68-1.14,.72-2,.01-.25,.02-.46,.02-.62s0-.36-.02-.62c-.04-.86-.28-1.53-.72-2-.44-.47-1.14-.71-2.09-.71h-2.74c-.13,0-.23-.04-.32-.13-.09-.09-.13-.2-.13-.32v-1.18c0-.13,.04-.23,.13-.32s.2-.13,.32-.13h2.83c1.17,0,2.11,.19,2.84,.58,.73,.39,1.27,.94,1.62,1.65s.54,1.57,.57,2.56c.01,.24,.02,.45,.02,.64s0,.4-.02,.64c-.03,.98-.22,1.82-.57,2.55-.35,.72-.9,1.28-1.62,1.66-.73,.39-1.68,.58-2.84,.58h-2.83Z"/><path class="cls-4" d="M293.26,114.6c-.14,0-.25-.04-.33-.12s-.12-.19-.12-.33v-5.66c0-.86-.22-1.53-.66-2-.44-.48-1.13-.71-2.08-.71h-2.66c-.14,0-.25-.04-.33-.13-.08-.09-.12-.2-.12-.34v-1.08c0-.13,.04-.23,.12-.32,.08-.09,.19-.13,.33-.13h2.77c1.12,0,2.04,.16,2.78,.48,.74,.32,1.3,.83,1.67,1.51,.37,.68,.56,1.56,.56,2.64v5.76c0,.13-.04,.23-.12,.32-.08,.09-.19,.13-.33,.13h-1.48Z"/><path class="cls-4" d="M296.66,115.66c-.14,.04-.26,.02-.37-.07-.11-.08-.16-.19-.16-.31v-1.1c0-.13,.03-.24,.1-.33,.06-.09,.16-.16,.28-.2l4.08-1.18c.71-.2,1.25-.47,1.63-.81,.38-.33,.65-.73,.8-1.2,.15-.46,.23-.98,.23-1.55v-4.71c0-.14,.04-.25,.12-.33s.19-.12,.33-.12h1.48c.14,0,.25,.04,.33,.13s.12,.2,.12,.32v5.43c0,.79-.18,1.5-.54,2.15-.36,.65-.88,1.2-1.55,1.66-.67,.46-1.48,.81-2.41,1.04l-4.48,1.18Zm2.47-1.52l-2.68-9.63c-.03-.1-.05-.18-.07-.23-.02-.05-.03-.1-.03-.15,0-.1,.04-.19,.11-.27,.08-.08,.17-.11,.27-.11h1.63c.24,0,.39,.09,.44,.28l2.51,9.67-2.19,.44Z"/><path class="cls-4" d="M307.13,114.6c-.11,0-.21-.04-.3-.13s-.12-.2-.09-.34l1.8-8.87c.03-.14,.08-.25,.17-.32s.2-.11,.32-.09l1.27,.04c.14,.01,.25,.07,.33,.17s.11,.21,.09,.34l-1.63,8.74c0,.14-.05,.25-.15,.34-.1,.09-.22,.13-.34,.13h-1.46Zm5.26-8.78l-5.09,.02c-.13,0-.24-.04-.32-.13s-.13-.2-.13-.32v-1.18c0-.13,.04-.23,.13-.32,.09-.09,.2-.13,.32-.13h5.42c.81,0,1.54,.17,2.18,.52,.65,.35,1.15,.86,1.51,1.55,.36,.68,.54,1.54,.54,2.57v5.76c0,.13-.04,.23-.12,.32-.08,.09-.19,.13-.33,.13h-5.02c-.14,0-.25-.04-.33-.13-.08-.09-.12-.2-.12-.32v-1.1c0-.13,.04-.23,.12-.32,.08-.09,.19-.13,.33-.13h3.08v-4.07c0-.56-.1-1.04-.29-1.44-.19-.41-.45-.71-.78-.93-.33-.21-.7-.32-1.1-.32Z"/></g><circle class="cls-2" cx="178.84" cy="113.57" r="1.57"/></svg>